<?xml version="1.0" encoding="UTF-8" standalone="no"?>
<!-- Created with Inkscape (http://www.inkscape.org/) -->

<svg
   width="210mm"
   height="297mm"
   viewBox="0 0 210 297"
   version="1.1"
   id="svg5"
   inkscape:version="1.1.2 (b8e25be833, 2022-02-05)"
   sodipodi:docname="proyecto derechos humanos.svg"
   xmlns:inkscape="http://www.inkscape.org/namespaces/inkscape"
   xmlns:sodipodi="http://sodipodi.sourceforge.net/DTD/sodipodi-0.dtd"
   xmlns="http://www.w3.org/2000/svg"
   xmlns:svg="http://www.w3.org/2000/svg">
  <sodipodi:namedview
     id="namedview7"
     pagecolor="#ffffff"
     bordercolor="#000000"
     borderopacity="0.25"
     inkscape:pageshadow="2"
     inkscape:pageopacity="0.0"
     inkscape:pagecheckerboard="0"
     inkscape:document-units="mm"
     showgrid="false"
     inkscape:zoom="0.45968013"
     inkscape:cx="262.13881"
     inkscape:cy="562.34756"
     inkscape:window-width="1360"
     inkscape:window-height="705"
     inkscape:window-x="-4"
     inkscape:window-y="-4"
     inkscape:window-maximized="1"
     inkscape:current-layer="layer1" />
  <defs
     id="defs2" />
  <g
     inkscape:label="Capa 1"
     inkscape:groupmode="layer"
     id="layer1">
    <rect
       style="fill:#000080;fill-opacity:1;stroke:#000000;stroke-width:0.305;stroke-miterlimit:4;stroke-dasharray:none"
       id="rect846"
       width="212.388"
       height="295.27325"
       x="-1.7250757"
       y="1.7267441" />
    <g
       id="g845"
       transform="translate(2.5994187,27.052326)">
      <path
         style="fill:#ffffff;fill-opacity:1;stroke:#000000;stroke-width:0.303001"
         d="m 147.28339,267.06975 v -52.3779 l 12.0872,-13.23837 v 0 l 2.30233,-4.60465 3.27704,-5.86725 3.62994,-9.67345 3.45349,-11.51162 1.72674,-9.20931 v -5.18023 l -16.11628,9.2093 -10.93604,6.3314 -16.69187,-12.66279 -24.75,-9.78489 -14.965088,-2.30232 39.715088,58.7093 -8.05814,-0.57558 -5.75581,56.98256 -0.57558,4.60465 z"
         id="path1285"
         sodipodi:nodetypes="cccccccccccccccccccc" />
      <path
         style="fill:#ffffff;fill-opacity:1;stroke:#000000;stroke-width:0.303001"
         d="m 107.85666,264.64683 -48.924484,0.57558 8.63372,-60.43604 -51.226739,-65.61627 37.988369,-49.50005 3.45349,-0.575582 53.529134,21.872142 -2.30232,14.38953 -29.354724,3.45349 -13.23837,-9.2093 4.02907,9.78488 -12.08721,5.18023 25.32558,9.20931 32.808204,51.22674 -8.63372,5.18023 0.57558,1.15117 v 0 l 6.90698,1.15116 z"
         id="path1437" />
      <path
         style="fill:#ffffff;fill-opacity:1;stroke:#000000;stroke-width:0.303001"
         d="m 133.41389,155.03608 11.51163,12.08721 42.01744,-29.35465 -16.69186,-18.41866 z"
         id="path1552" />
      <path
         style="fill:#ffffff;fill-opacity:1;stroke:#000000;stroke-width:0.303001"
         d="m 129.7097,153.49499 -25.66908,-8.63372 39.43662,-46.529417 23.06967,18.901447 z"
         id="path1918"
         sodipodi:nodetypes="ccccc" />
      <path
         style="fill:#ffffff;fill-opacity:1;stroke:#000000;stroke-width:0.303001"
         d="m 114.624,124.7528 -0.43634,-15.93062 -17.31385,-7.04624 18.90135,-25.18635 c 0,0 -1.15116,-1.726742 2.30233,0 3.45349,1.726745 23.02326,20.145344 23.02326,20.145344 z"
         id="path2115"
         sodipodi:nodetypes="ccccscc" />
      <path
         style="fill:#ffffff;fill-opacity:1;stroke:#000000;stroke-width:0.303001"
         d="M 92.7983,99.436343 62.617418,88.639563 86.652589,60.436076 c 0,0 27.145121,12.523546 23.116051,15.401454 -4.02907,2.877904 -16.97034,23.598813 -16.97034,23.598813 z"
         id="path2230"
         sodipodi:nodetypes="cccsc" />
      <path
         style="fill:#ffffff;fill-opacity:1;stroke:#000000;stroke-width:0.303001"
         d="m 73.628003,134.2497 24.796417,9.64565 8.63372,-10.36047 0.57558,-3.45349 -9.2093,1.15116 -12.087213,2.30233 -10.360464,-1.72675 z"
         id="path3115"
         sodipodi:nodetypes="cccccccc" />
    </g>
    <text
       xml:space="preserve"
       style="font-style:normal;font-variant:normal;font-weight:normal;font-stretch:normal;font-size:29.165px;font-family:Aharoni;-inkscape-font-specification:'Aharoni, Normal';font-variant-ligatures:normal;font-variant-caps:normal;font-variant-numeric:normal;font-variant-east-asian:normal;text-align:center;text-anchor:middle;fill:#ffffff;fill-opacity:1;stroke:#1a1a1a;stroke-width:0.018248;stroke-miterlimit:4;stroke-dasharray:none"
       x="113.04637"
       y="36.185158"
       id="text5059"
       transform="scale(0.92846145,1.0770506)"><tspan
         sodipodi:role="line"
         id="tspan16665"
         x="113.04637"
         y="36.185158"
         style="stroke-width:0.018248"> LUCHA POR TUS </tspan><tspan
         sodipodi:role="line"
         id="tspan16667"
         x="113.04637"
         y="72.64135"
         style="stroke-width:0.018248">DERECHOS</tspan></text>
  </g>
</svg>
